<?xml version="1.0" encoding="UTF-8"?>
<svg id="Layer_2" data-name="Layer 2" xmlns="http://www.w3.org/2000/svg" viewBox="0 0 431.8 399.26">
  <defs>
    <style>
      .cls-1 {
        fill: #0e436f;
      }

      .cls-2 {
        fill: #0e6f6a;
      }
    </style>
  </defs>
  <g id="Layer_1-2" data-name="Layer 1">
    <g id="Bridge_Health" data-name="Bridge Health">
      <g>
        <g>
          <path class="cls-1" d="M197.49,99.07v69.29c5.95,1.32,12.12,2.03,18.47,2.03s12.52-.72,18.47-2.03v-69.29c-6.12-.74-12.32-1.17-18.47-1.17s-12.35.43-18.47,1.17Z"/>
          <path class="cls-1" d="M182.26,101.52l-2.92,60.58c-18.47-8.81-33.23-24.09-41.42-42.91-9.36,1.73-18.53,3.69-18.53,3.69,23.26-11.4,36.65-14.56,36.65-14.56,7.91-2.47,16.8-4.91,26.22-6.79Z"/>
          <path class="cls-1" d="M312.41,122.88s-9.09-1.94-18.41-3.67c-8.19,18.8-22.95,34.06-41.4,42.89l-2.92-60.58c9.6,1.92,18.69,4.42,26.72,6.95,2.91.77,15.7,4.44,36.02,14.41Z"/>
        </g>
        <g>
          <g>
            <path class="cls-2" d="M118.59,357.46v41.8h-9.67v-17.14h-18.99v17.14h-9.67v-41.8h9.67v16.48h18.99v-16.48h9.67Z"/>
            <path class="cls-2" d="M166.83,391.5v7.76h-32.37v-41.8h31.59v7.76h-21.98v9.08h19.41v7.52h-19.41v9.67h22.76Z"/>
            <path class="cls-2" d="M208.02,390.3h-19.41l-3.7,8.96h-9.92l18.63-41.8h9.55l18.69,41.8h-10.15l-3.7-8.96ZM204.97,382.96l-6.63-16.01-6.63,16.01h13.26Z"/>
            <path class="cls-2" d="M232.19,357.46h9.67v33.92h20.96v7.88h-30.64v-41.8Z"/>
            <path class="cls-2" d="M279,365.34h-13.38v-7.88h36.43v7.88h-13.38v33.92h-9.67v-33.92Z"/>
            <path class="cls-2" d="M351.55,357.46v41.8h-9.67v-17.14h-18.99v17.14h-9.67v-41.8h9.67v16.48h18.99v-16.48h9.67Z"/>
          </g>
          <g>
            <path class="cls-2" d="M384.21,246v-24.05h36.44v-18.32h-57.54v36.98c7.03,1.69,14.06,3.47,21.1,5.39Z"/>
            <path class="cls-2" d="M117.6,229.48v-7.53h10.17c4.59,0,7.58,1.54,9.21,4.83,7.28-.89,14.57-1.65,21.87-2.28-2.57-13.97-12.12-20.87-30.51-20.87h-31.84v29.47c7.02-1.34,14.06-2.53,21.1-3.63Z"/>
            <path class="cls-2" d="M39.73,246.7v-24.75h10.17c7.48,0,10.74,4.03,10.74,13.19v5.92c7.02-1.77,14.05-3.43,21.1-4.95v-2.99c0-19.78-9.4-29.49-31.26-29.49h-31.84v49.56c7.02-2.29,14.05-4.45,21.1-6.49Z"/>
            <path class="cls-2" d="M307.93,229.7c.97-6.6,4.89-9.21,10.69-9.21,6.71,0,10.93,3.48,10.93,12.64v.27c6.64,1.25,13.29,2.61,19.95,4.08v-3.07c0-20.52-10.74-32.24-31.46-32.24-18.01,0-28.47,8.87-30.9,24.67,6.92.84,13.85,1.79,20.79,2.86Z"/>
            <path class="cls-2" d="M194.71,222.46v-18.83h-21.1v19.78c7.02-.43,14.06-.76,21.1-.95Z"/>
            <path class="cls-2" d="M231.15,222.56v-.6h11.89c2.43,0,4.5.45,6.16,1.44,8.22.5,16.45,1.16,24.69,1.99-3.02-14.14-13.09-21.74-30.47-21.74h-33.37v18.59c7.02-.02,14.06.11,21.1.33Z"/>
            <path class="cls-1" d="M68.12,260.91c5.86-2.63,9.71-6.9,11.78-12.95-26.81,6.01-53.45,13.86-79.89,23.57h18.63v57.7h33.18c21.1,0,32.03-10.62,32.03-30.41v-10.44c0-13.56-4.41-23.26-15.73-27.48ZM62.75,298.28c0,9.53-3.84,12.64-10.93,12.64h-12.09v-39.38h9.4c9.59,0,13.62,3.66,13.62,15.57v11.17Z"/>
            <path class="cls-1" d="M413.18,273.37v-.1h18.62l-15.48-5.83c-17.77-5.86-35.5-10.99-53.21-15.34v77.14h57.54v-18.32h-36.44v-37.55h28.96Z"/>
            <path class="cls-1" d="M159.8,293.88c0-13.37-3.45-23.08-14-27.29,9.4-4.21,13.81-12.82,13.81-26.01v-4.98c-7.04.61-14.08,1.35-21.1,2.21v7.35c0,10.26-4.79,13.56-12.66,13.56h-8.25v-17.97c-7.04,1.12-14.08,2.37-21.1,3.74v84.76h21.1v-52.21h7.29c9.59,0,13.81,4.4,13.81,16.3v20.15c0,10.44.77,12.46,1.92,15.75h21.48c-2.11-4.76-2.3-9.34-2.3-15.57v-19.78Z"/>
            <path class="cls-1" d="M319.96,276.12h9.59v23.63c0,9.16-4.22,12.46-10.93,12.46s-10.93-3.3-10.93-12.46v-58.82c-7.04-1.11-14.07-2.07-21.1-2.94v60.48c0,20.52,10.74,32.24,31.46,32.24s31.46-11.72,31.46-32.24v-40.67h-29.54v18.32Z"/>
            <path class="cls-1" d="M253.78,234.8v63.67c0,9.16-4.03,12.46-10.74,12.46h-11.89v-77.24c-7.04-.23-14.07-.36-21.1-.34v95.9h33.37c21.1,0,31.46-11.17,31.46-31.69v-60.88c-7.04-.73-14.07-1.38-21.1-1.87Z"/>
            <path class="cls-1" d="M173.61,234.55v94.69h21.1v-95.65c-7.04.2-14.07.52-21.1.97Z"/>
          </g>
        </g>
      </g>
      <path class="cls-2" d="M276.53,25.21c.03.24.03.48-.04.72l-2.14,7.17c-.18.59-.65,1.03-1.24,1.17l-7.28,1.73c-.59.14-1.22-.04-1.64-.49l-5.14-5.44c-.42-.44-.57-1.08-.4-1.66l2.14-7.17c.17-.58.65-1.03,1.24-1.17l6.84-1.62C254.21,6.9,235.73,0,215.63,0c-3.61,0-7.15.25-10.64.68l-1.86,6.23c-.32,1.08-1.19,1.9-2.29,2.16l-13.42,3.19c-1.1.26-2.24-.08-3.02-.9l-3.73-3.95c-2.71,1.21-5.35,2.55-7.91,4.02.29.1.57.26.79.49l5.74,6.07c.24.25.39.55.47.87s.07.66-.03.99l-2.39,8.01c-.2.65-.72,1.15-1.39,1.31l-8.13,1.93c-.66.16-1.36-.05-1.83-.54l-5.74-6.07c-.47-.5-.63-1.2-.44-1.86l.84-2.81c-19.05,15.81-31.19,39.66-31.19,66.35,0,6.24.67,12.32,1.93,18.19,24.57-11.52,53.67-20.59,84.79-20.59s59.4,8.9,83.78,20.17c1.2-5.73,1.84-11.68,1.84-17.77,0-23.81-9.66-45.36-25.27-60.96ZM196.26,44.18l-7.22-7.64c-.59-.62-.8-1.51-.55-2.33l3.01-10.07c.25-.82.91-1.45,1.74-1.65l10.23-2.43c.83-.2,1.71.06,2.3.69l7.22,7.64c.3.31.49.69.59,1.09.1.4.09.83-.03,1.24l-3.01,10.07c-.25.82-.91,1.45-1.74,1.65l-10.23,2.43c-.84.2-1.71-.06-2.3-.69ZM219.45,62.48l-2.39,8.01c-.2.65-.72,1.15-1.39,1.31l-8.13,1.93c-.66.16-1.36-.05-1.83-.54l-5.74-6.07c-.47-.5-.63-1.2-.44-1.86l2.39-8.01c.2-.65.72-1.15,1.39-1.31l8.13-1.93c.66-.16,1.36.05,1.83.55l5.74,6.07c.24.25.39.55.47.87.08.32.07.66-.03.99ZM219.1,21.93l-5.74-6.07c-.47-.5-.63-1.2-.44-1.86l2.39-8.01c.2-.65.72-1.15,1.39-1.31l8.13-1.93c.66-.16,1.36.05,1.83.54l5.74,6.07c.23.25.39.55.47.87.08.32.07.66-.03.99l-2.39,8.01c-.2.65-.72,1.15-1.39,1.31l-8.13,1.93c-.66.16-1.36-.05-1.83-.54ZM255.01,40l-3.95,13.22c-.32,1.08-1.19,1.9-2.29,2.16l-13.42,3.19c-1.1.26-2.24-.08-3.02-.9l-9.47-10.03c-.77-.82-1.05-1.98-.73-3.06l3.95-13.22c.32-1.08,1.19-1.9,2.29-2.16l13.42-3.19c1.1-.26,2.24.08,3.02.9l9.47,10.03c.39.41.65.9.78,1.43.13.53.12,1.09-.05,1.63ZM288.83,53.64l-3.04,10.18c-.25.83-.92,1.46-1.76,1.66l-10.33,2.46c-.84.2-1.73-.06-2.32-.69l-7.29-7.72c-.59-.63-.81-1.53-.56-2.36l3.04-10.18c.25-.83.92-1.46,1.76-1.66l10.33-2.46c.84-.2,1.73.06,2.32.69l7.29,7.72c.3.31.5.7.6,1.1.1.41.09.84-.04,1.25Z"/>
    </g>
  </g>
</svg>