<?xml version="1.0" encoding="UTF-8"?>
<svg id="Layer_2" data-name="Layer 2" xmlns="http://www.w3.org/2000/svg" viewBox="0 0 431.87 400.25">
  <defs>
    <style>
      .cls-1 {
        fill: #0e436f;
      }

      .cls-2 {
        fill: #1e6fa6;
      }
    </style>
  </defs>
  <g id="Layer_1-2" data-name="Layer 1">
    <g id="Bridge_Tech" data-name="Bridge Tech">
      <g>
        <path class="cls-2" d="M263.77,90.96c1.41.39,2.82.79,4.21,1.2-.11-.3-.23-.59-.39-.81-.92-1.31-2.71-1.46-3.82-.39Z"/>
        <path class="cls-2" d="M213.97,46.85c-1.04,1.48-1.04,5.07,0,6.54,1.05,1.49,3.15,1.46,4.18,0,1.04-1.48,1.04-5.07,0-6.54-1.03-1.46-3.13-1.49-4.18,0Z"/>
        <path class="cls-2" d="M164.98,91.37c-.15.21-.27.46-.37.74,1.38-.41,2.76-.8,4.16-1.18-1.1-1.01-2.86-.89-3.79.43Z"/>
        <path class="cls-2" d="M218.9,84.31c.3-1.66.1-3.75-.63-4.79-1.03-1.46-3.13-1.49-4.18,0-.73,1.04-.94,3.13-.63,4.8.95-.02,1.89-.05,2.84-.05.87,0,1.73.03,2.6.05Z"/>
        <path class="cls-2" d="M238.47,64.64c-1.04,1.48-1.04,5.07,0,6.54,1.05,1.49,3.15,1.46,4.18,0,1.04-1.48,1.04-5.07,0-6.54-1.03-1.46-3.13-1.49-4.18,0Z"/>
        <path class="cls-2" d="M189.46,64.63c-1.04,1.48-1.04,5.07,0,6.54,1.05,1.49,3.15,1.46,4.18,0,1.04-1.48,1.04-5.07,0-6.54-1.03-1.46-3.13-1.49-4.18,0Z"/>
        <path class="cls-2" d="M215.75,0c-47.87,0-86.68,38.81-86.68,86.68,0,6.28.67,12.4,1.94,18.3,9.7-4.55,20.1-8.7,31.04-12.09.32-1.61,1.11-3.06,2.35-3.86,2.17-1.4,5.03-.96,6.62,1.29,6.63-1.73,13.44-3.14,20.38-4.17v-6.4h-2.71v-2h5.09v8.04c5.69-.77,11.48-1.26,17.34-1.45-.48-2.71.31-5.85,2.38-7.18,3.18-2.05,7.84-.17,7.84,5.62,0,.56-.06,1.07-.14,1.56,6.52.2,12.94.79,19.24,1.7v-6.3h-2.71v-2h5.09v8.66c6.36,1.01,12.6,2.33,18.68,3.93.36-.53.8-1,1.32-1.34,2.84-1.83,6.85-.51,7.68,3.91,10.57,3.28,20.64,7.28,30.06,11.63,1.21-5.77,1.85-11.75,1.85-17.87C302.43,38.81,263.62,0,215.75,0ZM145.55,89.47c-3.14,0-5.69-2.55-5.69-5.69s2.55-5.69,5.69-5.69,5.69,2.55,5.69,5.69-2.55,5.69-5.69,5.69ZM169.24,84.42h-2.38v-10.83h-2.71v-2h5.09v12.82ZM167.12,64.37c-3.14,0-5.69-2.55-5.69-5.69s2.55-5.69,5.69-5.69,5.69,2.55,5.69,5.69-2.55,5.69-5.69,5.69ZM188.88,73.52c-3.37-2.17-3.37-9.06,0-11.23,3.18-2.05,7.84-.17,7.84,5.62s-4.59,7.71-7.84,5.62ZM188.44,47.23v-2h5.09v12.82h-2.38v-10.83h-2.71ZM191.62,38c-3.14,0-5.69-2.55-5.69-5.69s2.55-5.69,5.69-5.69,5.69,2.55,5.69,5.69-2.55,5.69-5.69,5.69ZM218.48,72.88h-2.38v-10.83h-2.71v-2h5.09v12.82ZM213.39,55.74c-3.37-2.17-3.37-9.06,0-11.23,3.18-2.05,7.84-.17,7.84,5.62s-4.59,7.71-7.84,5.62ZM213.13,29.38v-2h5.09v12.82h-2.38v-10.83h-2.71ZM216.33,20.24c-3.14,0-5.69-2.55-5.69-5.69s2.55-5.69,5.69-5.69,5.69,2.55,5.69,5.69-2.55,5.69-5.69,5.69ZM237.89,73.53c-3.37-2.17-3.37-9.06,0-11.23,3.18-2.05,7.84-.17,7.84,5.62s-4.59,7.71-7.84,5.62ZM237.49,47.23v-2h5.09v12.82h-2.38v-10.83h-2.71ZM240.7,38c-3.14,0-5.69-2.55-5.69-5.69s2.55-5.69,5.69-5.69,5.69,2.55,5.69,5.69-2.55,5.69-5.69,5.69ZM267.67,84.4h-2.38v-10.83h-2.71v-2h5.09v12.82ZM265.69,64.37c-3.14,0-5.69-2.55-5.69-5.69s2.55-5.69,5.69-5.69,5.69,2.55,5.69,5.69-2.55,5.69-5.69,5.69ZM287.42,89.47c-3.14,0-5.69-2.55-5.69-5.69s2.55-5.69,5.69-5.69,5.69,2.55,5.69,5.69-2.55,5.69-5.69,5.69Z"/>
      </g>
      <g>
        <g>
          <path class="cls-1" d="M197.48,97.61v69.48c5.97,1.32,12.16,2.04,18.52,2.04s12.56-.72,18.52-2.04v-69.48c-6.14-.74-12.35-1.17-18.52-1.17s-12.38.43-18.52,1.17Z"/>
          <path class="cls-1" d="M182.21,100.08l-2.93,60.74c-18.52-8.84-33.32-24.15-41.53-43.03-9.39,1.73-18.58,3.7-18.58,3.7,23.32-11.44,36.75-14.6,36.75-14.6,7.93-2.48,16.85-4.92,26.3-6.81Z"/>
          <path class="cls-1" d="M312.71,121.49s-9.11-1.95-18.46-3.68c-8.21,18.86-23.01,34.15-41.51,43.01l-2.93-60.74c9.62,1.93,18.74,4.43,26.79,6.97,2.91.77,15.75,4.45,36.12,14.45Z"/>
        </g>
        <g>
          <path class="cls-2" d="M384.28,244.13v-24.06h36.45v-18.32h-57.55v36.98c7.03,1.69,14.06,3.47,21.1,5.39Z"/>
          <path class="cls-2" d="M117.62,227.61v-7.53h10.17c4.59,0,7.58,1.54,9.22,4.83,7.28-.89,14.57-1.65,21.88-2.28-2.57-13.97-12.12-20.87-30.52-20.87h-31.85v29.48c7.02-1.34,14.06-2.53,21.1-3.63Z"/>
          <path class="cls-2" d="M39.74,244.83v-24.76h10.17c7.48,0,10.74,4.03,10.74,13.19v5.92c7.02-1.77,14.06-3.43,21.1-4.95v-2.99c0-19.79-9.4-29.5-31.27-29.5h-31.85v49.57c7.02-2.29,14.05-4.45,21.1-6.49Z"/>
          <path class="cls-2" d="M307.98,227.83c.97-6.6,4.89-9.22,10.69-9.22,6.71,0,10.93,3.48,10.93,12.64v.27c6.65,1.25,13.3,2.61,19.95,4.08v-3.07c0-20.52-10.74-32.24-31.46-32.24-18.02,0-28.48,8.87-30.9,24.68,6.92.84,13.86,1.79,20.79,2.86Z"/>
          <path class="cls-2" d="M194.74,220.58v-18.83h-21.1v19.78c7.03-.43,14.06-.76,21.1-.95Z"/>
          <path class="cls-2" d="M231.19,220.68v-.6h11.89c2.43,0,4.5.45,6.16,1.44,8.22.5,16.45,1.16,24.69,1.99-3.02-14.15-13.09-21.75-30.48-21.75h-33.38v18.59c7.03-.02,14.06.11,21.1.33Z"/>
          <path class="cls-1" d="M68.13,259.04c5.87-2.63,9.71-6.9,11.78-12.95-26.82,6.01-53.46,13.86-79.91,23.58h18.63v57.71h33.19c21.1,0,32.04-10.63,32.04-30.41v-10.44c0-13.56-4.41-23.27-15.73-27.48ZM62.76,296.42c0,9.53-3.84,12.64-10.94,12.64h-12.09v-39.39h9.4c9.59,0,13.62,3.66,13.62,15.57v11.18Z"/>
          <path class="cls-1" d="M413.25,271.5v-.1h18.63l-15.48-5.83c-17.77-5.87-35.51-10.99-53.22-15.34v77.16h57.55v-18.32h-36.45v-37.56h28.97Z"/>
          <path class="cls-1" d="M159.82,292.02c0-13.37-3.45-23.08-14-27.3,9.4-4.21,13.81-12.83,13.81-26.02v-4.98c-7.04.61-14.08,1.35-21.1,2.21v7.35c0,10.26-4.8,13.56-12.66,13.56h-8.25v-17.97c-7.05,1.12-14.08,2.37-21.1,3.74v84.77h21.1v-52.22h7.29c9.59,0,13.81,4.4,13.81,16.31v20.15c0,10.44.77,12.46,1.92,15.76h21.48c-2.11-4.76-2.3-9.34-2.3-15.57v-19.79Z"/>
          <path class="cls-1" d="M320.01,274.25h9.59v23.63c0,9.16-4.22,12.46-10.93,12.46s-10.94-3.3-10.94-12.46v-58.83c-7.04-1.11-14.07-2.07-21.1-2.94v60.49c0,20.52,10.74,32.24,31.46,32.24s31.46-11.73,31.46-32.24v-40.67h-29.54v18.32Z"/>
          <path class="cls-1" d="M253.83,232.92v63.68c0,9.16-4.03,12.46-10.74,12.46h-11.89v-77.26c-7.04-.23-14.08-.36-21.1-.34v95.92h33.38c21.1,0,31.46-11.18,31.46-31.7v-60.9c-7.04-.73-14.08-1.38-21.1-1.87Z"/>
          <path class="cls-1" d="M173.64,232.68v94.7h21.1v-95.67c-7.04.2-14.08.52-21.1.97Z"/>
        </g>
        <g>
          <path class="cls-2" d="M142.12,365.21h-13.53v-7.98h36.86v7.98h-13.53v34.32h-9.79v-34.32Z"/>
          <path class="cls-2" d="M206.48,391.67v7.86h-32.75v-42.29h31.96v7.86h-22.23v9.18h19.64v7.61h-19.64v9.79h23.02Z"/>
          <path class="cls-2" d="M214.52,378.38c0-12.75,9.79-21.87,22.96-21.87,7.31,0,13.41,2.66,17.4,7.49l-6.28,5.8c-2.84-3.26-6.4-4.95-10.63-4.95-7.91,0-13.53,5.56-13.53,13.53s5.62,13.53,13.53,13.53c4.23,0,7.79-1.69,10.63-5.02l6.28,5.8c-3.99,4.9-10.09,7.55-17.46,7.55-13.11,0-22.9-9.12-22.9-21.87Z"/>
          <path class="cls-2" d="M303.28,357.23v42.29h-9.79v-17.34h-19.21v17.34h-9.79v-42.29h9.79v16.67h19.21v-16.67h9.79Z"/>
        </g>
      </g>
    </g>
  </g>
</svg>