<?xml version="1.0" encoding="UTF-8"?>
<svg id="Layer_2" data-name="Layer 2" xmlns="http://www.w3.org/2000/svg" viewBox="0 0 351.87 328.06">
  <defs>
    <style>
      .cls-1 {
        fill: #603f83;
      }

      .cls-2 {
        fill: #0e436f;
      }
    </style>
  </defs>
  <g id="Layer_1-2" data-name="Layer 1">
    <g id="Bridge_Talent" data-name="Bridge Talent">
      <g>
        <path class="cls-1" d="M313.09,203.93v-19.6h29.7v-14.93h-46.89v30.13c5.73,1.38,11.46,2.82,17.19,4.39Z"/>
        <path class="cls-1" d="M95.83,190.46v-6.14h8.29c3.74,0,6.18,1.25,7.51,3.94,5.93-.73,11.87-1.34,17.82-1.86-2.1-11.38-9.87-17.01-24.86-17.01h-25.95v24.02c5.72-1.09,11.45-2.07,17.19-2.96Z"/>
        <path class="cls-1" d="M32.37,204.5v-20.17h8.29c6.09,0,8.75,3.28,8.75,10.75v4.83c5.72-1.44,11.45-2.79,17.19-4.03v-2.44c0-16.12-7.66-24.03-25.48-24.03H15.18v40.38c5.72-1.86,11.45-3.63,17.19-5.29Z"/>
        <path class="cls-1" d="M250.93,190.64c.79-5.38,3.98-7.51,8.71-7.51,5.47,0,8.91,2.84,8.91,10.3v.22c5.41,1.02,10.83,2.13,16.26,3.32v-2.5c0-16.72-8.75-26.27-25.63-26.27-14.68,0-23.2,7.23-25.18,20.11,5.64.68,11.29,1.46,16.94,2.33Z"/>
        <path class="cls-1" d="M158.67,184.74v-15.34h-17.19v16.12c5.72-.35,11.45-.62,17.19-.78Z"/>
        <path class="cls-1" d="M188.36,184.82v-.49h9.69c1.98,0,3.67.37,5.02,1.17,6.7.41,13.41.95,20.12,1.62-2.46-11.53-10.67-17.72-24.83-17.72h-27.2v15.15c5.72-.01,11.46.09,17.19.27Z"/>
        <path class="cls-2" d="M55.51,216.08c4.78-2.14,7.91-5.62,9.6-10.55-21.85,4.89-43.56,11.3-65.1,19.21h15.18v47.02h27.04c17.19,0,26.1-8.66,26.1-24.78v-8.51c0-11.05-3.59-18.96-12.82-22.39ZM51.13,246.53c0,7.76-3.13,10.3-8.91,10.3h-9.85v-32.09h7.66c7.82,0,11.1,2.99,11.1,12.69v9.11Z"/>
        <path class="cls-2" d="M336.69,226.23v-.08h15.18l-12.61-4.75c-14.48-4.78-28.93-8.95-43.36-12.5v62.86h46.89v-14.93h-29.7v-30.6h23.6Z"/>
        <path class="cls-2" d="M130.22,242.95c0-10.9-2.81-18.81-11.41-22.24,7.66-3.43,11.25-10.45,11.25-21.2v-4.06c-5.74.5-11.47,1.1-17.19,1.8v5.99c0,8.36-3.91,11.05-10.32,11.05h-6.72v-14.64c-5.74.91-11.47,1.93-17.19,3.04v69.07h17.19v-42.54h5.94c7.81,0,11.25,3.58,11.25,13.29v16.42c0,8.51.63,10.15,1.56,12.84h17.5c-1.72-3.88-1.88-7.61-1.88-12.69v-16.12Z"/>
        <path class="cls-2" d="M260.73,228.47h7.81v19.26c0,7.46-3.44,10.15-8.91,10.15s-8.91-2.69-8.91-10.15v-47.93c-5.74-.9-11.47-1.69-17.19-2.39v49.28c0,16.72,8.75,26.27,25.63,26.27s25.63-9.55,25.63-26.27v-33.14h-24.07v14.93Z"/>
        <path class="cls-2" d="M206.81,194.8v51.88c0,7.46-3.28,10.15-8.75,10.15h-9.69v-62.94c-5.74-.19-11.47-.29-17.19-.28v78.15h27.2c17.19,0,25.63-9.11,25.63-25.82v-49.61c-5.74-.6-11.47-1.12-17.19-1.52Z"/>
        <path class="cls-2" d="M141.48,194.6v77.16h17.19v-77.95c-5.74.16-11.47.43-17.19.79Z"/>
      </g>
      <g>
        <path class="cls-1" d="M81.31,300.1h-11.03v-6.5h30.03v6.5h-11.03v27.96h-7.97v-27.96Z"/>
        <path class="cls-1" d="M128.03,320.68h-16l-3.05,7.38h-8.17l15.36-34.46h7.88l15.41,34.46h-8.37l-3.05-7.38ZM125.52,314.62l-5.46-13.19-5.46,13.19h10.93Z"/>
        <path class="cls-1" d="M145.51,293.6h7.97v27.96h17.28v6.5h-25.25v-34.46Z"/>
        <path class="cls-1" d="M204.39,321.66v6.4h-26.68v-34.46h26.04v6.4h-18.11v7.48h16v6.2h-16v7.97h18.75Z"/>
        <path class="cls-1" d="M244.81,293.6v34.46h-6.55l-17.18-20.92v20.92h-7.88v-34.46h6.6l17.13,20.92v-20.92h7.88Z"/>
        <path class="cls-1" d="M262.59,300.1h-11.03v-6.5h30.03v6.5h-11.03v27.96h-7.97v-27.96Z"/>
      </g>
      <g>
        <g>
          <path class="cls-2" d="M160.9,82.31v56.61c4.86,1.08,9.91,1.66,15.09,1.66s10.23-.59,15.09-1.66v-56.61c-5-.6-10.07-.95-15.09-.95s-10.09.35-15.09.95Z"/>
          <path class="cls-2" d="M148.46,84.32l-2.39,49.49c-15.09-7.2-27.15-19.68-33.84-35.06-7.65,1.41-15.14,3.01-15.14,3.01,19-9.32,29.94-11.9,29.94-11.9,6.46-2.02,13.73-4.01,21.42-5.55Z"/>
          <path class="cls-2" d="M254.78,101.76s-7.42-1.59-15.04-3c-6.69,15.36-18.75,27.82-33.82,35.04l-2.39-49.49c7.84,1.57,15.27,3.61,21.83,5.68,2.37.63,12.83,3.62,29.43,11.77Z"/>
        </g>
        <g>
          <path class="cls-1" d="M177.04,36.24c7.46-10.7,14.57-21.55,20.88-32.92-6.73-2.15-13.89-3.32-21.33-3.32-7.05,0-13.85,1.05-20.27,2.99,5.89,11.29,12.59,22.11,19.61,32.75.25.41.6.98,1.11.49ZM172.07,16.66c-1.27-2.5-.28-5.56,2.22-6.83,2.5-1.27,5.56-.28,6.83,2.22,1.27,2.5.28,5.56-2.22,6.83-2.5,1.27-5.56.28-6.83-2.22Z"/>
          <path class="cls-1" d="M145.65,64.12c-2.33.42-24.07,4.89-38.98,7.86.11,4.02.59,7.95,1.35,11.78,45.74-16.55,91.43-16.4,137.05.45.82-3.97,1.32-8.05,1.44-12.23-14.91-2.97-36.66-7.44-38.98-7.86-9.05-1.68-14.47-11.61-10.82-20.14,1.23-2.72,10.07-18.51,13.14-24.16.03-.03.06-.04.1-.04.07.01.04-.01.22.07.28.16.64.42.94.73,2.42,2.44,1.42,5.19-.07,7.82-1.88,3.76-8.57,17.3-9.78,19.71-1.6,3.04-.25,7.08,3.03,8.3,2.1.67,26.42,3.42,41.75,5.2-2.89-24.25-18.17-44.7-39.35-54.81-8.92,9.77-17.04,20.17-24.89,30.87,0,0-.56.77-.56.77-.81,1.28-2.2,2.37-3.75,2.57-1.96.35-4.1-.56-5.2-2.23,0,0-.27-.39-.27-.39l-2.15-3.12c-7.09-9.96-14.41-19.7-22.44-28.9-21.66,9.95-37.36,30.63-40.3,55.24,15.33-1.77,39.65-4.53,41.75-5.2,3.28-1.22,4.63-5.26,3.03-8.3-1.21-2.41-7.91-15.96-9.78-19.71-1.49-2.64-2.48-5.39-.07-7.82.3-.31.66-.57.94-.73.18-.08.15-.06.22-.07.04,0,.08.01.1.04,3.07,5.65,11.91,21.44,13.14,24.16,3.65,8.53-1.77,18.46-10.82,20.14ZM217.89,39.95c2.77.44,4.66,3.04,4.22,5.81-.44,2.77-3.04,4.66-5.81,4.22s-4.66-3.04-4.22-5.81c.44-2.77,3.04-4.66,5.81-4.22ZM141.1,44.17c.44,2.77-1.45,5.37-4.22,5.81s-5.37-1.45-5.81-4.22c-.44-2.77,1.45-5.37,4.22-5.81,2.77-.44,5.37,1.45,5.81,4.22Z"/>
        </g>
      </g>
    </g>
  </g>
</svg>