<?xml version="1.0" encoding="UTF-8"?>
<svg id="Layer_2" data-name="Layer 2" xmlns="http://www.w3.org/2000/svg" viewBox="0 0 354.72 271.47">
  <defs>
    <style>
      .cls-1 {
        fill: #119ba5;
      }

      .cls-2 {
        fill: #0e436f;
      }
    </style>
  </defs>
  <g id="Layer_1-2" data-name="Layer 1">
    <g id="Bridge_Group" data-name="Bridge Group">
      <g>
        <path class="cls-1" d="M225.08,76.75c-6.51-1.71-13.4-3.26-20.51-4.55l-1.29-26.65c5.35,10.08,12.46,20.98,21.8,31.2Z"/>
        <path class="cls-1" d="M151.53,45.55v.34l-1.27,26.3c-7.11,1.31-14,2.85-20.51,4.56,9.34-10.22,16.45-21.12,21.79-31.2Z"/>
        <path class="cls-1" d="M245.95,83.56c.88-4.42,1.35-8.99,1.35-13.68C247.3,31.29,216.01,0,177.41,0s-69.89,31.29-69.89,69.89c0,4.68.47,9.25,1.35,13.68,29.66-17.43,40.14-50.71,42.32-58.89h11.05v45.72c5.01-.56,10.1-.88,15.17-.88s10.16.32,15.17.88V24.68h11.04c2.18,8.17,12.65,41.45,42.32,58.89Z"/>
        <path class="cls-2" d="M162.24,81.18v56.92c4.89,1.08,9.96,1.67,15.17,1.67s10.29-.59,15.17-1.67v-56.92c-5.03-.61-10.12-.96-15.17-.96s-10.14.35-15.17.96Z"/>
        <path class="cls-2" d="M149.73,83.2l-2.4,49.76c-15.17-7.24-27.3-19.79-34.02-35.25-7.69,1.42-15.22,3.03-15.22,3.03,19.11-9.37,30.11-11.96,30.11-11.96,6.5-2.03,13.8-4.03,21.54-5.58Z"/>
        <path class="cls-2" d="M256.64,100.74s-7.47-1.6-15.13-3.02c-6.72,15.45-18.85,27.98-34.01,35.23l-2.4-49.76c7.89,1.58,15.35,3.63,21.95,5.71,2.39.63,12.9,3.64,29.59,11.84Z"/>
      </g>
      <g>
        <path class="cls-1" d="M315.63,201.89v-19.76h29.94v-15.05h-47.27v30.38c5.77,1.39,11.55,2.85,17.33,4.43Z"/>
        <path class="cls-1" d="M96.61,188.31v-6.18h8.35c3.77,0,6.23,1.26,7.57,3.97,5.98-.73,11.97-1.36,17.97-1.87-2.11-11.47-9.95-17.14-25.07-17.14h-26.16v24.21c5.77-1.1,11.55-2.08,17.33-2.98Z"/>
        <path class="cls-1" d="M32.64,202.46v-20.33h8.35c6.14,0,8.82,3.31,8.82,10.83v4.86c5.77-1.45,11.54-2.81,17.33-4.06v-2.46c0-16.25-7.72-24.23-25.68-24.23H15.3v40.71c5.77-1.88,11.54-3.66,17.33-5.33Z"/>
        <path class="cls-1" d="M252.96,188.5c.8-5.42,4.02-7.57,8.78-7.57,5.51,0,8.98,2.86,8.98,10.38v.23c5.46,1.03,10.92,2.15,16.39,3.35v-2.52c0-16.85-8.82-26.48-25.84-26.48-14.8,0-23.39,7.29-25.38,20.27,5.69.69,11.38,1.47,17.08,2.35Z"/>
        <path class="cls-1" d="M159.95,182.55v-15.46h-17.33v16.25c5.77-.36,11.55-.63,17.33-.78Z"/>
        <path class="cls-1" d="M189.89,182.63v-.5h9.77c2,0,3.7.37,5.06,1.18,6.75.41,13.51.96,20.28,1.63-2.48-11.62-10.75-17.86-25.03-17.86h-27.42v15.27c5.77-.01,11.55.09,17.33.27Z"/>
        <path class="cls-2" d="M55.96,214.13c4.82-2.16,7.98-5.67,9.67-10.64-22.02,4.93-43.91,11.39-65.63,19.36h15.3v47.4h27.26c17.33,0,26.31-8.73,26.31-24.98v-8.58c0-11.14-3.62-19.11-12.92-22.57ZM51.55,244.83c0,7.83-3.15,10.38-8.98,10.38h-9.93v-32.35h7.72c7.88,0,11.19,3.01,11.19,12.79v9.18Z"/>
        <path class="cls-2" d="M339.42,224.37v-.08h15.3l-12.71-4.79c-14.59-4.82-29.17-9.02-43.71-12.6v63.37h47.27v-15.05h-29.94v-30.85h23.79Z"/>
        <path class="cls-2" d="M131.27,241.22c0-10.98-2.84-18.96-11.5-22.42,7.72-3.46,11.34-10.53,11.34-21.37v-4.09c-5.79.5-11.56,1.11-17.33,1.82v6.04c0,8.43-3.94,11.14-10.4,11.14h-6.78v-14.76c-5.79.92-11.56,1.94-17.33,3.07v69.63h17.33v-42.89h5.99c7.88,0,11.34,3.61,11.34,13.39v16.55c0,8.58.63,10.23,1.58,12.94h17.65c-1.73-3.91-1.89-7.67-1.89-12.79v-16.25Z"/>
        <path class="cls-2" d="M262.84,226.62h7.88v19.41c0,7.52-3.47,10.23-8.98,10.23s-8.98-2.71-8.98-10.23v-48.32c-5.78-.91-11.56-1.7-17.33-2.41v49.68c0,16.85,8.82,26.48,25.84,26.48s25.84-9.63,25.84-26.48v-33.41h-24.26v15.05Z"/>
        <path class="cls-2" d="M208.48,192.68v52.3c0,7.52-3.31,10.23-8.82,10.23h-9.77v-63.45c-5.78-.19-11.56-.29-17.33-.28v78.78h27.42c17.33,0,25.84-9.18,25.84-26.03v-50.02c-5.78-.6-11.56-1.13-17.33-1.53Z"/>
        <path class="cls-2" d="M142.62,192.48v77.79h17.33v-78.58c-5.78.16-11.56.43-17.33.79Z"/>
      </g>
    </g>
  </g>
</svg>